<mxfile host="drawio-plugin" agent="Mozilla/5.0 (Macintosh; Intel Mac OS X 10_15_7) AppleWebKit/537.36 (KHTML, like Gecko) Chrome/122.0.0.0 Safari/537.36" scale="1" border="0" modified="2024-11-26T09:49:37.200Z" etag="Qqn1aA2IXeNUtytK2Tjm" version="22.1.22" type="embed">
  <diagram name="Page-1" id="OhgWvvb14NKu598vO4sx">
    <mxGraphModel dx="1944" dy="1440" grid="0" gridSize="10" guides="1" tooltips="1" connect="1" arrows="1" fold="1" page="1" pageScale="1" pageWidth="1169" pageHeight="827" math="0" shadow="0">
      <root>
        <mxCell id="0" />
        <mxCell id="1" parent="0" />
        <mxCell id="MK_ACzIMLz2KjIdmvYMH-1" value="Student" style="swimlane;fontStyle=1;align=center;verticalAlign=top;childLayout=stackLayout;horizontal=1;startSize=26;horizontalStack=0;resizeParent=1;resizeParentMax=0;resizeLast=0;collapsible=1;marginBottom=0;whiteSpace=wrap;html=1;" parent="1" vertex="1">
          <mxGeometry x="200" y="-122" width="160" height="86" as="geometry" />
        </mxCell>
        <mxCell id="MK_ACzIMLz2KjIdmvYMH-2" value="- name: String" style="text;strokeColor=none;fillColor=none;align=left;verticalAlign=top;spacingLeft=4;spacingRight=4;overflow=hidden;rotatable=0;points=[[0,0.5],[1,0.5]];portConstraint=eastwest;whiteSpace=wrap;html=1;" parent="MK_ACzIMLz2KjIdmvYMH-1" vertex="1">
          <mxGeometry y="26" width="160" height="26" as="geometry" />
        </mxCell>
        <mxCell id="MK_ACzIMLz2KjIdmvYMH-3" value="" style="line;strokeWidth=1;fillColor=none;align=left;verticalAlign=middle;spacingTop=-1;spacingLeft=3;spacingRight=3;rotatable=0;labelPosition=right;points=[];portConstraint=eastwest;strokeColor=inherit;" parent="MK_ACzIMLz2KjIdmvYMH-1" vertex="1">
          <mxGeometry y="52" width="160" height="8" as="geometry" />
        </mxCell>
        <mxCell id="MK_ACzIMLz2KjIdmvYMH-4" value="+ getName(String): String" style="text;strokeColor=none;fillColor=none;align=left;verticalAlign=top;spacingLeft=4;spacingRight=4;overflow=hidden;rotatable=0;points=[[0,0.5],[1,0.5]];portConstraint=eastwest;whiteSpace=wrap;html=1;" parent="MK_ACzIMLz2KjIdmvYMH-1" vertex="1">
          <mxGeometry y="60" width="160" height="26" as="geometry" />
        </mxCell>
        <mxCell id="MK_ACzIMLz2KjIdmvYMH-5" value="CourseSession" style="swimlane;fontStyle=1;align=center;verticalAlign=top;childLayout=stackLayout;horizontal=1;startSize=26;horizontalStack=0;resizeParent=1;resizeParentMax=0;resizeLast=0;collapsible=1;marginBottom=0;whiteSpace=wrap;html=1;" parent="1" vertex="1">
          <mxGeometry x="-87" y="-122" width="221" height="279" as="geometry" />
        </mxCell>
        <mxCell id="MK_ACzIMLz2KjIdmvYMH-6" value="- department: String" style="text;strokeColor=none;fillColor=none;align=left;verticalAlign=top;spacingLeft=4;spacingRight=4;overflow=hidden;rotatable=0;points=[[0,0.5],[1,0.5]];portConstraint=eastwest;whiteSpace=wrap;html=1;" parent="MK_ACzIMLz2KjIdmvYMH-5" vertex="1">
          <mxGeometry y="26" width="221" height="23" as="geometry" />
        </mxCell>
        <mxCell id="MK_ACzIMLz2KjIdmvYMH-25" value="- number: String" style="text;strokeColor=none;fillColor=none;align=left;verticalAlign=top;spacingLeft=4;spacingRight=4;overflow=hidden;rotatable=0;points=[[0,0.5],[1,0.5]];portConstraint=eastwest;whiteSpace=wrap;html=1;" parent="MK_ACzIMLz2KjIdmvYMH-5" vertex="1">
          <mxGeometry y="49" width="221" height="26" as="geometry" />
        </mxCell>
        <mxCell id="MK_ACzIMLz2KjIdmvYMH-26" value="- allStudents:List&amp;lt;Student&amp;gt;" style="text;strokeColor=none;fillColor=none;align=left;verticalAlign=top;spacingLeft=4;spacingRight=4;overflow=hidden;rotatable=0;points=[[0,0.5],[1,0.5]];portConstraint=eastwest;whiteSpace=wrap;html=1;" parent="MK_ACzIMLz2KjIdmvYMH-5" vertex="1">
          <mxGeometry y="75" width="221" height="26" as="geometry" />
        </mxCell>
        <mxCell id="MK_ACzIMLz2KjIdmvYMH-27" value="- startDate: LocalDate" style="text;strokeColor=none;fillColor=none;align=left;verticalAlign=top;spacingLeft=4;spacingRight=4;overflow=hidden;rotatable=0;points=[[0,0.5],[1,0.5]];portConstraint=eastwest;whiteSpace=wrap;html=1;" parent="MK_ACzIMLz2KjIdmvYMH-5" vertex="1">
          <mxGeometry y="101" width="221" height="26" as="geometry" />
        </mxCell>
        <mxCell id="MK_ACzIMLz2KjIdmvYMH-28" value="- creditHour: byte" style="text;strokeColor=none;fillColor=none;align=left;verticalAlign=top;spacingLeft=4;spacingRight=4;overflow=hidden;rotatable=0;points=[[0,0.5],[1,0.5]];portConstraint=eastwest;whiteSpace=wrap;html=1;" parent="MK_ACzIMLz2KjIdmvYMH-5" vertex="1">
          <mxGeometry y="127" width="221" height="29" as="geometry" />
        </mxCell>
        <mxCell id="MK_ACzIMLz2KjIdmvYMH-29" value="- lecturer: String" style="text;strokeColor=none;fillColor=none;align=left;verticalAlign=top;spacingLeft=4;spacingRight=4;overflow=hidden;rotatable=0;points=[[0,0.5],[1,0.5]];portConstraint=eastwest;whiteSpace=wrap;html=1;" parent="MK_ACzIMLz2KjIdmvYMH-5" vertex="1">
          <mxGeometry y="156" width="221" height="25" as="geometry" />
        </mxCell>
        <mxCell id="MK_ACzIMLz2KjIdmvYMH-7" value="" style="line;strokeWidth=1;fillColor=none;align=left;verticalAlign=middle;spacingTop=-1;spacingLeft=3;spacingRight=3;rotatable=0;labelPosition=right;points=[];portConstraint=eastwest;strokeColor=inherit;" parent="MK_ACzIMLz2KjIdmvYMH-5" vertex="1">
          <mxGeometry y="181" width="221" height="8" as="geometry" />
        </mxCell>
        <mxCell id="MK_ACzIMLz2KjIdmvYMH-8" value="+ get(int): Student" style="text;strokeColor=none;fillColor=none;align=left;verticalAlign=top;spacingLeft=4;spacingRight=4;overflow=hidden;rotatable=0;points=[[0,0.5],[1,0.5]];portConstraint=eastwest;whiteSpace=wrap;html=1;" parent="MK_ACzIMLz2KjIdmvYMH-5" vertex="1">
          <mxGeometry y="189" width="221" height="26" as="geometry" />
        </mxCell>
        <mxCell id="MK_ACzIMLz2KjIdmvYMH-30" value="+ enroll(int): void" style="text;strokeColor=none;fillColor=none;align=left;verticalAlign=top;spacingLeft=4;spacingRight=4;overflow=hidden;rotatable=0;points=[[0,0.5],[1,0.5]];portConstraint=eastwest;whiteSpace=wrap;html=1;" parent="MK_ACzIMLz2KjIdmvYMH-5" vertex="1">
          <mxGeometry y="215" width="221" height="26" as="geometry" />
        </mxCell>
        <mxCell id="MK_ACzIMLz2KjIdmvYMH-31" value="+ getNumberOfStudents(int): int" style="text;strokeColor=none;fillColor=none;align=left;verticalAlign=top;spacingLeft=4;spacingRight=4;overflow=hidden;rotatable=0;points=[[0,0.5],[1,0.5]];portConstraint=eastwest;whiteSpace=wrap;html=1;" parent="MK_ACzIMLz2KjIdmvYMH-5" vertex="1">
          <mxGeometry y="241" width="221" height="38" as="geometry" />
        </mxCell>
        <mxCell id="MK_ACzIMLz2KjIdmvYMH-13" value="&amp;lt;&amp;lt; utility &amp;gt;&amp;gt;&lt;br&gt;DateUtil&lt;br&gt;" style="swimlane;fontStyle=1;align=center;verticalAlign=top;childLayout=stackLayout;horizontal=1;startSize=41;horizontalStack=0;resizeParent=1;resizeParentMax=0;resizeLast=0;collapsible=1;marginBottom=0;whiteSpace=wrap;html=1;" parent="1" vertex="1">
          <mxGeometry x="-87" y="192" width="210" height="92" as="geometry" />
        </mxCell>
        <mxCell id="MK_ACzIMLz2KjIdmvYMH-15" value="" style="line;strokeWidth=1;fillColor=none;align=left;verticalAlign=middle;spacingTop=-1;spacingLeft=3;spacingRight=3;rotatable=0;labelPosition=right;points=[];portConstraint=eastwest;strokeColor=inherit;" parent="MK_ACzIMLz2KjIdmvYMH-13" vertex="1">
          <mxGeometry y="41" width="210" height="23" as="geometry" />
        </mxCell>
        <mxCell id="MK_ACzIMLz2KjIdmvYMH-16" value="&lt;div style=&quot;text-align: justify;&quot;&gt;&lt;span style=&quot;background-color: initial;&quot;&gt;+ createDate(int, int, int): LocalDate&lt;/span&gt;&lt;/div&gt;" style="text;strokeColor=none;fillColor=none;align=left;verticalAlign=top;spacingLeft=4;spacingRight=4;overflow=hidden;rotatable=0;points=[[0,0.5],[1,0.5]];portConstraint=eastwest;whiteSpace=wrap;html=1;" parent="MK_ACzIMLz2KjIdmvYMH-13" vertex="1">
          <mxGeometry y="64" width="210" height="28" as="geometry" />
        </mxCell>
        <mxCell id="MK_ACzIMLz2KjIdmvYMH-21" value="RosterReport" style="swimlane;fontStyle=1;align=center;verticalAlign=top;childLayout=stackLayout;horizontal=1;startSize=26;horizontalStack=0;resizeParent=1;resizeParentMax=0;resizeLast=0;collapsible=1;marginBottom=0;whiteSpace=wrap;html=1;" parent="1" vertex="1">
          <mxGeometry x="202" y="50" width="160" height="86" as="geometry" />
        </mxCell>
        <mxCell id="MK_ACzIMLz2KjIdmvYMH-22" value="+ name: String" style="text;strokeColor=none;fillColor=none;align=left;verticalAlign=top;spacingLeft=4;spacingRight=4;overflow=hidden;rotatable=0;points=[[0,0.5],[1,0.5]];portConstraint=eastwest;whiteSpace=wrap;html=1;" parent="MK_ACzIMLz2KjIdmvYMH-21" vertex="1">
          <mxGeometry y="26" width="160" height="26" as="geometry" />
        </mxCell>
        <mxCell id="MK_ACzIMLz2KjIdmvYMH-23" value="" style="line;strokeWidth=1;fillColor=none;align=left;verticalAlign=middle;spacingTop=-1;spacingLeft=3;spacingRight=3;rotatable=0;labelPosition=right;points=[];portConstraint=eastwest;strokeColor=inherit;" parent="MK_ACzIMLz2KjIdmvYMH-21" vertex="1">
          <mxGeometry y="52" width="160" height="8" as="geometry" />
        </mxCell>
        <mxCell id="MK_ACzIMLz2KjIdmvYMH-24" value="+ getName(String): String" style="text;strokeColor=none;fillColor=none;align=left;verticalAlign=top;spacingLeft=4;spacingRight=4;overflow=hidden;rotatable=0;points=[[0,0.5],[1,0.5]];portConstraint=eastwest;whiteSpace=wrap;html=1;" parent="MK_ACzIMLz2KjIdmvYMH-21" vertex="1">
          <mxGeometry y="60" width="160" height="26" as="geometry" />
        </mxCell>
        <mxCell id="MK_ACzIMLz2KjIdmvYMH-35" value="enrolls" style="endArrow=open;endSize=12;dashed=1;html=1;rounded=0;fontSize=12;curved=1;exitX=1;exitY=0.5;exitDx=0;exitDy=0;" parent="1" source="MK_ACzIMLz2KjIdmvYMH-25" edge="1">
          <mxGeometry x="0.0164" width="160" relative="1" as="geometry">
            <mxPoint x="108" y="200" as="sourcePoint" />
            <mxPoint x="195" y="-60" as="targetPoint" />
            <mxPoint as="offset" />
          </mxGeometry>
        </mxCell>
        <mxCell id="MK_ACzIMLz2KjIdmvYMH-36" value="" style="endArrow=open;endSize=12;dashed=1;html=1;rounded=0;fontSize=12;curved=1;entryX=0.5;entryY=1;entryDx=0;entryDy=0;" parent="1" target="MK_ACzIMLz2KjIdmvYMH-1" edge="1">
          <mxGeometry x="0.0164" width="160" relative="1" as="geometry">
            <mxPoint x="284" y="47" as="sourcePoint" />
            <mxPoint x="205" y="-50" as="targetPoint" />
            <mxPoint as="offset" />
          </mxGeometry>
        </mxCell>
        <mxCell id="MK_ACzIMLz2KjIdmvYMH-37" value="" style="endArrow=open;endSize=12;dashed=1;html=1;rounded=0;fontSize=12;curved=1;exitX=0;exitY=0.5;exitDx=0;exitDy=0;entryX=1;entryY=0.75;entryDx=0;entryDy=0;" parent="1" source="MK_ACzIMLz2KjIdmvYMH-22" target="MK_ACzIMLz2KjIdmvYMH-5" edge="1">
          <mxGeometry x="0.0291" width="160" relative="1" as="geometry">
            <mxPoint x="154" y="-40" as="sourcePoint" />
            <mxPoint x="215" y="-40" as="targetPoint" />
            <mxPoint as="offset" />
          </mxGeometry>
        </mxCell>
        <mxCell id="MK_ACzIMLz2KjIdmvYMH-39" value="" style="endArrow=open;endSize=12;dashed=1;html=1;rounded=0;fontSize=12;curved=1;exitX=0.516;exitY=1.053;exitDx=0;exitDy=0;exitPerimeter=0;entryX=0.552;entryY=0;entryDx=0;entryDy=0;entryPerimeter=0;" parent="1" source="MK_ACzIMLz2KjIdmvYMH-31" target="MK_ACzIMLz2KjIdmvYMH-13" edge="1">
          <mxGeometry x="0.0249" width="160" relative="1" as="geometry">
            <mxPoint x="164" y="-30" as="sourcePoint" />
            <mxPoint x="40" y="235" as="targetPoint" />
            <mxPoint as="offset" />
          </mxGeometry>
        </mxCell>
        <mxCell id="2" value="CourseReport" style="swimlane;fontStyle=1;align=center;verticalAlign=top;childLayout=stackLayout;horizontal=1;startSize=26;horizontalStack=0;resizeParent=1;resizeParentMax=0;resizeLast=0;collapsible=1;marginBottom=0;whiteSpace=wrap;html=1;" parent="1" vertex="1">
          <mxGeometry x="209" y="186" width="160" height="86" as="geometry" />
        </mxCell>
        <mxCell id="3" value="+ name: String" style="text;strokeColor=none;fillColor=none;align=left;verticalAlign=top;spacingLeft=4;spacingRight=4;overflow=hidden;rotatable=0;points=[[0,0.5],[1,0.5]];portConstraint=eastwest;whiteSpace=wrap;html=1;" parent="2" vertex="1">
          <mxGeometry y="26" width="160" height="26" as="geometry" />
        </mxCell>
        <mxCell id="4" value="" style="line;strokeWidth=1;fillColor=none;align=left;verticalAlign=middle;spacingTop=-1;spacingLeft=3;spacingRight=3;rotatable=0;labelPosition=right;points=[];portConstraint=eastwest;strokeColor=inherit;" parent="2" vertex="1">
          <mxGeometry y="52" width="160" height="8" as="geometry" />
        </mxCell>
        <mxCell id="5" value="+ getName(String): String" style="text;strokeColor=none;fillColor=none;align=left;verticalAlign=top;spacingLeft=4;spacingRight=4;overflow=hidden;rotatable=0;points=[[0,0.5],[1,0.5]];portConstraint=eastwest;whiteSpace=wrap;html=1;" parent="2" vertex="1">
          <mxGeometry y="60" width="160" height="26" as="geometry" />
        </mxCell>
        <mxCell id="10" value="&lt;p style=&quot;margin:0px;margin-top:4px;text-align:center;&quot;&gt;&lt;i&gt;&amp;lt;&amp;lt;Interface&amp;gt;&amp;gt;&lt;/i&gt;&lt;br&gt;&lt;b&gt;GradingStrategy&lt;/b&gt;&lt;/p&gt;&lt;hr size=&quot;1&quot;&gt;&lt;p style=&quot;margin:0px;margin-left:4px;&quot;&gt;&lt;br&gt;&lt;/p&gt;&lt;p style=&quot;margin:0px;margin-left:4px;&quot;&gt;+ getGradePointsFor(grade:Grade): int&lt;br&gt;&lt;/p&gt;" style="verticalAlign=top;align=left;overflow=fill;fontSize=12;fontFamily=Helvetica;html=1;whiteSpace=wrap;" parent="1" vertex="1">
          <mxGeometry x="564" y="-125" width="224" height="84" as="geometry" />
        </mxCell>
        <mxCell id="13" value="" style="endArrow=open;endSize=12;dashed=1;html=1;rounded=0;fontSize=12;curved=1;entryX=1.009;entryY=-0.053;entryDx=0;entryDy=0;exitX=0.431;exitY=-0.012;exitDx=0;exitDy=0;exitPerimeter=0;entryPerimeter=0;" parent="1" source="2" target="MK_ACzIMLz2KjIdmvYMH-31" edge="1">
          <mxGeometry x="0.0164" width="160" relative="1" as="geometry">
            <mxPoint x="294" y="57" as="sourcePoint" />
            <mxPoint x="290" y="-26" as="targetPoint" />
            <mxPoint as="offset" />
            <Array as="points">
              <mxPoint x="278" y="162" />
              <mxPoint x="176" y="166" />
              <mxPoint x="172" y="114" />
            </Array>
          </mxGeometry>
        </mxCell>
        <mxCell id="14" value="" style="endArrow=open;endSize=12;dashed=1;html=1;rounded=0;fontSize=12;curved=1;entryX=0;entryY=0.5;entryDx=0;entryDy=0;exitX=1;exitY=0.5;exitDx=0;exitDy=0;" parent="1" source="MK_ACzIMLz2KjIdmvYMH-2" target="10" edge="1">
          <mxGeometry x="0.0164" width="160" relative="1" as="geometry">
            <mxPoint x="304" y="67" as="sourcePoint" />
            <mxPoint x="300" y="-16" as="targetPoint" />
            <mxPoint as="offset" />
          </mxGeometry>
        </mxCell>
        <mxCell id="16" value="RegularGradingStrategy" style="rounded=0;whiteSpace=wrap;html=1;" parent="1" vertex="1">
          <mxGeometry x="429" y="50" width="144" height="60" as="geometry" />
        </mxCell>
        <mxCell id="39" value="" style="edgeStyle=orthogonalEdgeStyle;rounded=0;orthogonalLoop=1;jettySize=auto;html=1;" edge="1" parent="1" source="17" target="10">
          <mxGeometry relative="1" as="geometry" />
        </mxCell>
        <mxCell id="17" value="HonorsGradingStrategy" style="rounded=0;whiteSpace=wrap;html=1;" parent="1" vertex="1">
          <mxGeometry x="604" y="53" width="144" height="60" as="geometry" />
        </mxCell>
        <mxCell id="18" value="EliteGradingStrategy" style="rounded=0;whiteSpace=wrap;html=1;" parent="1" vertex="1">
          <mxGeometry x="779" y="50" width="144" height="60" as="geometry" />
        </mxCell>
        <mxCell id="29" value="" style="endArrow=none;html=1;edgeStyle=orthogonalEdgeStyle;rounded=0;exitX=0.5;exitY=1;exitDx=0;exitDy=0;entryX=0.5;entryY=0;entryDx=0;entryDy=0;" parent="1" source="10" target="17" edge="1">
          <mxGeometry relative="1" as="geometry">
            <mxPoint x="665" y="237" as="sourcePoint" />
            <mxPoint x="825" y="237" as="targetPoint" />
          </mxGeometry>
        </mxCell>
        <mxCell id="30" value="parent" style="edgeLabel;resizable=0;html=1;align=left;verticalAlign=bottom;" parent="29" connectable="0" vertex="1">
          <mxGeometry x="-1" relative="1" as="geometry" />
        </mxCell>
        <mxCell id="31" value="child" style="edgeLabel;resizable=0;html=1;align=right;verticalAlign=bottom;" parent="29" connectable="0" vertex="1">
          <mxGeometry x="1" relative="1" as="geometry">
            <mxPoint x="14" y="-3" as="offset" />
          </mxGeometry>
        </mxCell>
        <mxCell id="32" value="" style="endArrow=none;html=1;edgeStyle=orthogonalEdgeStyle;rounded=0;entryX=0.5;entryY=0;entryDx=0;entryDy=0;" parent="1" source="10" target="18" edge="1">
          <mxGeometry relative="1" as="geometry">
            <mxPoint x="675" y="247" as="sourcePoint" />
            <mxPoint x="835" y="247" as="targetPoint" />
          </mxGeometry>
        </mxCell>
        <mxCell id="33" value="parent" style="edgeLabel;resizable=0;html=1;align=left;verticalAlign=bottom;" parent="32" connectable="0" vertex="1">
          <mxGeometry x="-1" relative="1" as="geometry" />
        </mxCell>
        <mxCell id="34" value="child" style="edgeLabel;resizable=0;html=1;align=right;verticalAlign=bottom;" parent="32" connectable="0" vertex="1">
          <mxGeometry x="1" relative="1" as="geometry">
            <mxPoint x="15" y="-5" as="offset" />
          </mxGeometry>
        </mxCell>
        <mxCell id="36" value="" style="endArrow=none;html=1;edgeStyle=orthogonalEdgeStyle;rounded=0;exitX=0.5;exitY=1;exitDx=0;exitDy=0;entryX=0.5;entryY=0;entryDx=0;entryDy=0;" parent="1" source="10" target="16" edge="1">
          <mxGeometry relative="1" as="geometry">
            <mxPoint x="685" y="257" as="sourcePoint" />
            <mxPoint x="845" y="257" as="targetPoint" />
          </mxGeometry>
        </mxCell>
        <mxCell id="37" value="parent" style="edgeLabel;resizable=0;html=1;align=left;verticalAlign=bottom;" parent="36" connectable="0" vertex="1">
          <mxGeometry x="-1" relative="1" as="geometry">
            <mxPoint x="-17" y="21" as="offset" />
          </mxGeometry>
        </mxCell>
        <mxCell id="38" value="child" style="edgeLabel;resizable=0;html=1;align=right;verticalAlign=bottom;" parent="36" connectable="0" vertex="1">
          <mxGeometry x="1" relative="1" as="geometry">
            <mxPoint x="14" y="-5" as="offset" />
          </mxGeometry>
        </mxCell>
      </root>
    </mxGraphModel>
  </diagram>
</mxfile>
